<svg width="192" height="60" viewBox="0 0 192 60" fill="none" xmlns="http://www.w3.org/2000/svg">
<rect width="192" height="60" rx="8" fill="#7B46AC"/>
<path d="M49.745 29.0095C49.7039 24.4936 53.485 22.2966 53.6579 22.1943C51.5165 19.1075 48.1974 18.6858 47.0311 18.6521C44.2435 18.3621 41.5395 20.3013 40.1195 20.3013C38.6711 20.3013 36.4844 18.6802 34.1276 18.7278C31.0948 18.774 28.2576 20.5101 26.7015 23.2059C23.4902 28.7026 25.8852 36.7803 28.962 41.2234C30.501 43.4008 32.2994 45.829 34.6534 45.7435C36.9563 45.651 37.8165 44.2933 40.5956 44.2933C43.3492 44.2933 44.157 45.7435 46.5577 45.6889C49.0293 45.651 50.5854 43.5031 52.0706 41.3075C53.8492 38.8148 54.5634 36.3572 54.5918 36.2311C54.5351 36.2114 49.7932 34.4208 49.745 29.0095ZM45.21 15.7293C46.4486 14.1979 47.2961 12.1143 47.0608 10C45.2681 10.0785 43.0261 11.226 41.7351 12.7239C40.5928 14.0437 39.5724 16.2071 39.836 18.2416C41.8498 18.3901 43.9175 17.237 45.21 15.7293Z" fill="white"/>
<path d="M80.2156 44.1502H77.3786L75.8245 39.273H70.4229L68.9426 44.1502H66.1805L71.5335 27.5458H74.8389L80.2156 44.1502ZM75.3561 37.2267L73.9507 32.891C73.8021 32.448 73.5222 31.405 73.1125 29.763H73.0625C72.8976 30.4692 72.634 31.5123 72.273 32.891L70.8914 37.2267H75.3561ZM93.9545 38.0165C93.9545 40.0528 93.4011 41.6623 92.293 42.8439C91.3012 43.8957 90.0682 44.421 88.5978 44.421C87.0101 44.421 85.8683 43.8557 85.175 42.7228V49.005H82.5116V36.1125C82.5116 34.8336 82.4779 33.5223 82.4129 32.1773H84.7552L84.9039 34.075H84.9539C85.8421 32.6452 87.19 31.9303 88.9988 31.9303C90.413 31.9303 91.5935 32.488 92.5379 33.6047C93.4811 34.7238 93.9545 36.1936 93.9545 38.0165ZM91.2412 38.1138C91.2412 36.9485 90.9789 35.9878 90.4517 35.2304C89.8758 34.4431 89.1025 34.0488 88.1331 34.0488C87.476 34.0488 86.8789 34.2684 86.3455 34.7014C85.8108 35.1381 85.4611 35.7083 85.2974 36.4145C85.2243 36.6786 85.1828 36.9504 85.1737 37.2242V39.2218C85.1737 40.0914 85.4411 40.8263 85.9757 41.4277C86.5104 42.0266 87.205 42.3273 88.0594 42.3273C89.0626 42.3273 89.8433 41.9393 90.4017 41.1695C90.9614 40.3971 91.2412 39.379 91.2412 38.1138ZM107.742 38.0165C107.742 40.0528 107.189 41.6623 106.081 42.8439C105.088 43.8957 103.856 44.421 102.384 44.421C100.797 44.421 99.6547 43.8557 98.9614 42.7228V49.005H96.2981V36.1125C96.2981 34.8336 96.2643 33.5223 96.1994 32.1773H98.5417L98.6903 34.075H98.7403C99.6272 32.6452 100.975 31.9303 102.785 31.9303C104.198 31.9303 105.379 32.488 106.326 33.6047C107.267 34.7238 107.742 36.1936 107.742 38.0165ZM105.028 38.1138C105.028 36.9485 104.764 35.9878 104.237 35.2304C103.661 34.4431 102.89 34.0488 101.921 34.0488C101.264 34.0488 100.667 34.2684 100.131 34.7014C99.596 35.1381 99.2475 35.7083 99.0838 36.4145C99.0026 36.7439 98.9589 37.0121 98.9589 37.2242V39.2218C98.9589 40.0914 99.2275 40.8263 99.7597 41.4277C100.294 42.0254 100.989 42.3273 101.846 42.3273C102.85 42.3273 103.631 41.9393 104.188 41.1695C104.748 40.3971 105.028 39.379 105.028 38.1138ZM123.158 39.4925C123.158 40.9062 122.663 42.0553 121.68 42.9424C120.598 43.9106 119.088 44.396 117.151 44.396C115.362 44.396 113.928 44.0516 112.847 43.3617L113.462 41.1445C114.63 41.8357 115.913 42.1801 117.31 42.1801C118.314 42.1801 119.095 41.953 119.652 41.5026C120.211 41.0509 120.493 40.447 120.493 39.6934C120.493 39.0184 120.259 38.4532 119.801 37.9928C119.34 37.5337 118.578 37.1057 117.507 36.7127C114.597 35.6284 113.14 34.0426 113.14 31.9565C113.14 30.594 113.655 29.4785 114.682 28.6064C115.708 27.7355 117.07 27.3 118.764 27.3C120.277 27.3 121.537 27.5633 122.538 28.0886L121.87 30.2571C120.928 29.748 119.865 29.4935 118.675 29.4935C117.736 29.4935 116.999 29.7243 116.472 30.1835C116.028 30.594 115.803 31.0943 115.803 31.6882C115.803 32.3432 116.06 32.8872 116.569 33.314C117.011 33.707 117.818 34.1349 118.985 34.5941C120.417 35.1705 121.469 35.8418 122.142 36.6129C122.82 37.3839 123.158 38.3459 123.158 39.4925ZM131.986 34.1736H129.05V39.9866C129.05 41.4652 129.567 42.2025 130.604 42.2025C131.08 42.2025 131.475 42.1626 131.787 42.079L131.861 44.099C131.336 44.2949 130.645 44.3935 129.79 44.3935C128.738 44.3935 127.916 44.0728 127.323 43.4315C126.732 42.7902 126.434 41.7159 126.434 40.2037V34.1686H124.685V32.1723H126.434V29.9801L129.05 29.1916V32.1723H131.986V34.1736ZM145.205 38.0652C145.205 39.9055 144.678 41.4165 143.626 42.5981C142.526 43.8146 141.061 44.421 139.236 44.421C137.475 44.421 136.075 43.8383 135.03 42.6742C133.986 41.5076 133.464 40.0378 133.464 38.2648C133.464 36.4095 134.003 34.8898 135.079 33.7082C136.157 32.5254 137.609 31.934 139.434 31.934C141.193 31.934 142.606 32.5179 143.675 33.6833C144.697 34.8137 145.205 36.2735 145.205 38.0652ZM142.444 38.1263C142.444 37.0296 142.207 36.0888 141.731 35.3015C141.173 34.3508 140.373 33.8754 139.338 33.8754C138.271 33.8754 137.452 34.3508 136.895 35.3015C136.418 36.0888 136.181 37.0458 136.181 38.1762C136.181 39.2742 136.418 40.2175 136.895 41.0023C137.471 41.953 138.274 42.4284 139.315 42.4284C140.333 42.4284 141.131 41.943 141.709 40.9786C142.198 40.1725 142.444 39.2255 142.444 38.1263ZM153.866 34.5167C153.589 34.4668 153.308 34.4421 153.027 34.4431C152.09 34.4431 151.365 34.795 150.855 35.5037C150.413 36.1275 150.191 36.9161 150.191 37.868V44.1502H147.527V35.9478C147.53 34.691 147.504 33.4342 147.45 32.1785H149.77L149.867 34.4693H149.941C150.223 33.682 150.665 33.0469 151.273 32.5716C151.828 32.1562 152.504 31.9312 153.198 31.9303C153.444 31.9303 153.666 31.9477 153.864 31.9789L153.866 34.5167ZM165.777 37.5973C165.784 38.0017 165.751 38.4058 165.68 38.8038H157.69C157.72 39.9866 158.107 40.8925 158.849 41.5163C159.522 42.0728 160.393 42.3523 161.463 42.3523C162.646 42.3523 163.725 42.1651 164.696 41.7871L165.113 43.6324C163.978 44.1265 162.639 44.3723 161.094 44.3723C159.235 44.3723 157.776 43.8258 156.714 42.7353C155.655 41.6436 155.124 40.1763 155.124 38.3384C155.124 36.5343 155.617 35.0308 156.606 33.8317C157.64 32.5516 159.038 31.9115 160.797 31.9115C162.524 31.9115 163.832 32.5516 164.72 33.8317C165.424 34.8461 165.777 36.1038 165.777 37.5973ZM163.238 36.9073C163.256 36.1175 163.082 35.4375 162.72 34.8623C162.26 34.1212 161.55 33.7519 160.599 33.7519C159.729 33.7519 159.019 34.1125 158.479 34.8361C158.036 35.4113 157.772 36.1026 157.691 36.9048L163.238 36.9073Z" fill="white"/>
<path d="M62.392 20H62.26V11.6H62.404C62.748 11.6 63.088 11.596 63.424 11.588C64.112 11.572 64.488 11.564 64.552 11.564C65.368 11.564 66.084 11.676 66.7 11.9C67.316 12.116 67.808 12.42 68.176 12.812C68.544 13.196 68.816 13.632 68.992 14.12C69.176 14.6 69.268 15.124 69.268 15.692C69.268 16.948 68.848 17.984 68.008 18.8C67.176 19.616 65.992 20.024 64.456 20.024C64.12 20.024 63.792 20.02 63.472 20.012C63.16 20.004 62.8 20 62.392 20ZM64.528 12.524C64.384 12.524 64.164 12.532 63.868 12.548C63.58 12.556 63.384 12.56 63.28 12.56V19.04C63.488 19.04 63.688 19.044 63.88 19.052C64.08 19.052 64.228 19.056 64.324 19.064C64.42 19.064 64.476 19.064 64.492 19.064C65.652 19.064 66.56 18.756 67.216 18.14C67.864 17.516 68.188 16.7 68.188 15.692C68.188 14.748 67.872 13.984 67.24 13.4C66.608 12.816 65.704 12.524 64.528 12.524ZM71.0616 19.328C70.5336 18.784 70.2696 18.108 70.2696 17.3C70.2696 16.484 70.5336 15.812 71.0616 15.284C71.5976 14.748 72.2936 14.48 73.1496 14.48C74.0056 14.48 74.6976 14.748 75.2256 15.284C75.7616 15.812 76.0296 16.484 76.0296 17.3C76.0296 18.116 75.7616 18.792 75.2256 19.328C74.6976 19.856 74.0056 20.12 73.1496 20.12C72.3016 20.12 71.6056 19.856 71.0616 19.328ZM71.8176 15.92C71.4656 16.272 71.2896 16.732 71.2896 17.3C71.2896 17.868 71.4616 18.328 71.8056 18.68C72.1576 19.04 72.6056 19.22 73.1496 19.22C73.6936 19.22 74.1376 19.044 74.4816 18.692C74.8336 18.332 75.0096 17.868 75.0096 17.3C75.0096 16.748 74.8336 16.288 74.4816 15.92C74.1376 15.56 73.6936 15.38 73.1496 15.38C72.6056 15.38 72.1616 15.56 71.8176 15.92ZM83.8605 14.6H84.8325L83.1045 20.048H82.2645L80.9205 16.532C80.8565 16.364 80.7885 16.144 80.7165 15.872C80.6445 16.136 80.5685 16.368 80.4885 16.568L79.1805 20.048H78.3885L76.6005 14.6H77.6325L78.6885 18.008C78.7045 18.064 78.7245 18.144 78.7485 18.248C78.7805 18.352 78.8085 18.46 78.8325 18.572C78.8645 18.676 78.8845 18.74 78.8925 18.764C79.0365 18.268 79.1125 18.016 79.1205 18.008L80.3445 14.6H81.1725L82.4085 17.996L82.6605 18.776C82.7165 18.504 82.7885 18.228 82.8765 17.948L83.8605 14.6ZM86.7771 20H85.8171V14.6H86.7771V15.26C86.9771 15.036 87.2371 14.856 87.5571 14.72C87.8851 14.576 88.2131 14.504 88.5411 14.504C90.0371 14.504 90.7851 15.296 90.7851 16.88V20H89.8251V17.06C89.8251 15.956 89.3171 15.404 88.3011 15.404C87.6931 15.404 87.1851 15.636 86.7771 16.1V20ZM92.4031 18.56V11.6H93.3631V18.128C93.3631 18.84 93.5751 19.196 93.9991 19.196C94.2071 19.196 94.4351 19.116 94.6831 18.956L94.8991 19.688C94.5551 19.96 94.1311 20.096 93.6271 20.096C92.8111 20.096 92.4031 19.584 92.4031 18.56ZM96.3155 19.328C95.7875 18.784 95.5235 18.108 95.5235 17.3C95.5235 16.484 95.7875 15.812 96.3155 15.284C96.8515 14.748 97.5475 14.48 98.4035 14.48C99.2595 14.48 99.9515 14.748 100.48 15.284C101.016 15.812 101.284 16.484 101.284 17.3C101.284 18.116 101.016 18.792 100.48 19.328C99.9515 19.856 99.2595 20.12 98.4035 20.12C97.5555 20.12 96.8595 19.856 96.3155 19.328ZM97.0715 15.92C96.7195 16.272 96.5435 16.732 96.5435 17.3C96.5435 17.868 96.7155 18.328 97.0595 18.68C97.4115 19.04 97.8595 19.22 98.4035 19.22C98.9475 19.22 99.3915 19.044 99.7355 18.692C100.088 18.332 100.264 17.868 100.264 17.3C100.264 16.748 100.088 16.288 99.7355 15.92C99.3915 15.56 98.9475 15.38 98.4035 15.38C97.8595 15.38 97.4155 15.56 97.0715 15.92ZM102.957 15.74L102.705 14.972C103.241 14.644 103.841 14.48 104.505 14.48C105.233 14.48 105.761 14.66 106.089 15.02C106.417 15.38 106.581 15.936 106.581 16.688V20H105.669V19.304C105.245 19.824 104.669 20.084 103.941 20.084C103.445 20.084 103.045 19.936 102.741 19.64C102.437 19.336 102.285 18.928 102.285 18.416C102.285 17.888 102.473 17.472 102.849 17.168C103.225 16.856 103.717 16.7 104.325 16.7C104.893 16.7 105.341 16.816 105.669 17.048C105.669 16.44 105.585 16.004 105.417 15.74C105.249 15.476 104.925 15.344 104.445 15.344C103.957 15.344 103.461 15.476 102.957 15.74ZM104.277 19.22C104.813 19.22 105.277 18.988 105.669 18.524V17.84C105.333 17.6 104.929 17.48 104.457 17.48C104.129 17.48 103.853 17.56 103.629 17.72C103.413 17.872 103.305 18.088 103.305 18.368C103.305 18.632 103.389 18.84 103.557 18.992C103.733 19.144 103.973 19.22 104.277 19.22ZM113.108 20H112.148V19.316C111.668 19.836 111.096 20.096 110.432 20.096C109.64 20.096 109.008 19.844 108.536 19.34C108.064 18.828 107.828 18.16 107.828 17.336C107.828 16.496 108.104 15.812 108.656 15.284C109.216 14.748 109.924 14.48 110.78 14.48C111.324 14.48 111.78 14.608 112.148 14.864V11.6H113.108V20ZM110.612 19.196C111.204 19.196 111.716 18.956 112.148 18.476V15.8C111.7 15.52 111.256 15.38 110.816 15.38C110.264 15.38 109.796 15.56 109.412 15.92C109.036 16.272 108.848 16.736 108.848 17.312C108.848 17.888 109.008 18.348 109.328 18.692C109.656 19.028 110.084 19.196 110.612 19.196ZM117.96 19.328C117.432 18.784 117.168 18.108 117.168 17.3C117.168 16.484 117.432 15.812 117.96 15.284C118.496 14.748 119.192 14.48 120.048 14.48C120.904 14.48 121.596 14.748 122.124 15.284C122.66 15.812 122.928 16.484 122.928 17.3C122.928 18.116 122.66 18.792 122.124 19.328C121.596 19.856 120.904 20.12 120.048 20.12C119.2 20.12 118.504 19.856 117.96 19.328ZM118.716 15.92C118.364 16.272 118.188 16.732 118.188 17.3C118.188 17.868 118.36 18.328 118.704 18.68C119.056 19.04 119.504 19.22 120.048 19.22C120.592 19.22 121.036 19.044 121.38 18.692C121.732 18.332 121.908 17.868 121.908 17.3C121.908 16.748 121.732 16.288 121.38 15.92C121.036 15.56 120.592 15.38 120.048 15.38C119.504 15.38 119.06 15.56 118.716 15.92ZM125.273 20H124.313V14.6H125.273V15.26C125.473 15.036 125.733 14.856 126.053 14.72C126.381 14.576 126.709 14.504 127.037 14.504C128.533 14.504 129.281 15.296 129.281 16.88V20H128.321V17.06C128.321 15.956 127.813 15.404 126.797 15.404C126.189 15.404 125.681 15.636 125.273 16.1V20ZM133.474 17.948V13.1H134.434V14.6H136.414V15.5H134.434V17.852C134.434 18.748 134.754 19.196 135.394 19.196C135.706 19.196 135.99 19.096 136.246 18.896L136.546 19.64C136.17 19.944 135.71 20.096 135.166 20.096C134.582 20.096 134.154 19.92 133.882 19.568C133.61 19.216 133.474 18.676 133.474 17.948ZM138.785 20H137.825V11.6H138.785V15.224C139.265 14.744 139.853 14.504 140.549 14.504C142.045 14.504 142.793 15.304 142.793 16.904V20H141.833V17.036C141.833 15.948 141.329 15.404 140.321 15.404C140.041 15.404 139.757 15.468 139.469 15.596C139.189 15.724 138.961 15.888 138.785 16.088V20ZM148.671 18.656L148.971 19.412C148.451 19.884 147.775 20.12 146.943 20.12C146.063 20.12 145.363 19.864 144.843 19.352C144.315 18.84 144.051 18.156 144.051 17.3C144.051 16.492 144.299 15.82 144.795 15.284C145.283 14.748 145.963 14.48 146.835 14.48C147.555 14.48 148.151 14.712 148.623 15.176C149.103 15.632 149.343 16.224 149.343 16.952C149.343 17.184 149.323 17.4 149.283 17.6H145.131C145.171 18.104 145.359 18.5 145.695 18.788C146.039 19.076 146.479 19.22 147.015 19.22C147.719 19.22 148.271 19.032 148.671 18.656ZM146.787 15.38C146.315 15.38 145.923 15.512 145.611 15.776C145.307 16.04 145.127 16.388 145.071 16.82H148.347C148.323 16.372 148.171 16.02 147.891 15.764C147.619 15.508 147.251 15.38 146.787 15.38Z" fill="white"/>
</svg>
