<svg width="15" height="18" viewBox="0 0 15 18" fill="none" xmlns="http://www.w3.org/2000/svg">
<path d="M9.96197 2.88667C10.584 2.11135 11.0045 1.06881 10.895 0C9.98825 0.0438039 8.87563 0.600113 8.23609 1.37544C7.65788 2.04126 7.14976 3.1276 7.28117 4.14823C8.3018 4.23583 9.31805 3.6401 9.96197 2.88667Z" fill="white"/>
<path d="M10.8816 4.34958C9.40105 4.26197 8.1395 5.19061 7.43425 5.19061C6.72463 5.19061 5.64267 4.39338 4.47311 4.41529C2.94874 4.43719 1.53387 5.30012 0.758543 6.67119C-0.831538 9.41331 0.338026 13.4827 1.8843 15.7211C2.63773 16.8249 3.54009 18.0427 4.73593 17.9989C5.86169 17.9551 6.30411 17.2673 7.67517 17.2673C9.04624 17.2673 9.44485 17.9989 10.6363 17.977C11.876 17.9551 12.6469 16.8687 13.4003 15.7649C14.2633 14.5033 14.6137 13.2899 14.64 13.2199C14.6181 13.198 12.2527 12.2912 12.2308 9.571C12.2089 7.2932 14.0881 6.21124 14.1757 6.14116C13.1156 4.5686 11.4554 4.39338 10.8816 4.34958Z" fill="white"/>
</svg>
