<svg width="60" height="60" viewBox="0 0 60 60" fill="none" xmlns="http://www.w3.org/2000/svg">
<circle cx="30" cy="30" r="30" fill="white"/>
<path d="M38.6567 29.9275C38.6204 25.9062 41.9534 23.9498 42.1058 23.8587C40.2182 21.11 37.2925 20.7345 36.2644 20.7045C33.8072 20.4463 31.4237 22.1731 30.1719 22.1731C28.8952 22.1731 26.9677 20.7295 24.8902 20.7719C22.2169 20.8131 19.7159 22.359 18.3443 24.7595C15.5135 29.6543 17.6247 36.8472 20.3368 40.8037C21.6935 42.7426 23.2787 44.9049 25.3537 44.8288C27.3837 44.7464 28.1419 43.5374 30.5917 43.5374C33.0189 43.5374 33.731 44.8288 35.8472 44.7801C38.0258 44.7464 39.3975 42.8337 40.7066 40.8785C42.2744 38.6589 42.904 36.4704 42.929 36.3581C42.879 36.3407 38.6991 34.7461 38.6567 29.9275ZM34.6591 18.1018C35.751 16.7381 36.498 14.8828 36.2906 13C34.7104 13.0699 32.7341 14.0917 31.596 15.4255C30.5892 16.6009 29.6897 18.5273 29.9221 20.339C31.6972 20.4712 33.5199 19.4444 34.6591 18.1018Z" fill="url(#paint0_linear)"/>
<defs>
<linearGradient id="paint0_linear" x1="17" y1="13" x2="49.6094" y2="22.9608" gradientUnits="userSpaceOnUse">
<stop stop-color="#E6CBFF"/>
<stop offset="0.981808" stop-color="#C5E8FE"/>
</linearGradient>
</defs>
</svg>
