<svg width="1894" height="900" viewBox="0 0 1894 900" fill="none" xmlns="http://www.w3.org/2000/svg">
<rect width="1920" height="900" fill="url(#paint0_linear)"/>
<path opacity="0.05" d="M1362 139.68L1362 135.6L1530 135.6L1530 138.96C1530 146.16 1530.08 154.16 1530.24 162.96C1530.24 166.32 1530.24 170 1530.24 174C1530.4 178.16 1530.48 181.36 1530.48 183.6C1530.64 185.84 1530.72 187.52 1530.72 188.64C1530.72 220.16 1522.88 243.76 1507.2 259.44C1491.52 275.12 1471.6 282.96 1447.44 282.96C1422.64 282.96 1402.08 274.56 1385.76 257.76C1369.6 241.12 1361.52 217.44 1361.52 186.72C1361.52 180.48 1361.6 173.52 1361.76 165.84C1361.92 158.16 1362 149.44 1362 139.68ZM1494.72 188.16C1494.72 181.92 1494.48 177.2 1494 174L1398 174C1397.68 178.48 1397.52 183.12 1397.52 187.92C1397.52 204.88 1401.92 218.16 1410.72 227.76C1419.52 237.36 1431.76 242.16 1447.44 242.16C1462.32 242.16 1473.92 237.28 1482.24 227.52C1490.56 217.76 1494.72 204.64 1494.72 188.16ZM1362 325.95L1362 287.31L1530 357.15L1530 391.47L1362 461.31L1362 420.27L1397.28 406.35L1397.28 339.87L1362 325.95ZM1433.28 391.95L1480.8 373.23L1433.28 354.27L1433.28 391.95ZM1494 501.702L1494 451.302L1530 451.302L1530 590.502L1494 590.502L1494 540.102L1362 540.102L1362 501.702L1494 501.702ZM1362 619.134L1362 580.494L1530 650.334L1530 684.654L1362 754.494L1362 713.454L1397.28 699.534L1397.28 633.054L1362 619.134ZM1433.28 685.134L1480.8 666.414L1433.28 647.454L1433.28 685.134Z" fill="white"/>
<defs>
<linearGradient id="paint0_linear" x1="0" y1="0" x2="2006.18" y2="622.082" gradientUnits="userSpaceOnUse">
<stop stop-color="#7B46AC"/>
<stop offset="1" stop-color="#874CBE"/>
</linearGradient>
</defs>
</svg>
