<svg width="386" height="386" viewBox="0 0 386 386" fill="none" xmlns="http://www.w3.org/2000/svg">
<path d="M193 200.719H7.71999C3.45624 200.719 0 197.262 0 192.999C0 188.736 3.45624 185.279 7.71999 185.279H193C197.263 185.279 200.72 188.736 200.72 192.999C200.72 197.262 197.263 200.719 193 200.719Z" fill="white"/>
<path d="M162.121 293.361H38.6009C34.3371 293.361 30.8809 289.904 30.8809 285.641C30.8809 281.378 34.3371 277.921 38.6009 277.921H162.121C166.384 277.921 169.841 281.378 169.841 285.641C169.841 289.904 166.384 293.361 162.121 293.361Z" fill="white"/>
<path d="M347.401 108.081H38.6009C34.3371 108.081 30.8809 104.625 30.8809 100.361C30.8809 96.0976 34.3371 92.6414 38.6009 92.6414H347.401C351.664 92.6414 355.121 96.0976 355.121 100.361C355.121 104.625 351.664 108.081 347.401 108.081Z" fill="white"/>
<path d="M193 386C141.448 386 92.9811 365.924 56.5281 329.471C20.0751 293.018 0 244.552 0 193C0 141.448 20.0751 92.9811 56.5281 56.5289C92.9811 20.0751 141.448 0 193 0C197.263 0 200.72 3.45624 200.72 7.71999C200.72 11.9837 197.263 15.44 193 15.44C166.99 15.44 142.217 33.3527 123.244 65.877C103.509 99.7091 92.6399 144.856 92.6399 193C92.6399 241.143 103.509 286.29 123.244 320.123C142.217 352.648 166.99 370.56 193 370.56C197.263 370.56 200.72 374.017 200.72 378.28C200.72 382.543 197.263 386 193 386ZM135.587 24.9634C65.7712 48.8861 15.44 115.178 15.44 193C15.44 270.823 65.7712 337.114 135.587 361.036C126.237 352.186 117.599 341.087 109.907 327.902C88.8154 291.745 77.1999 243.836 77.1999 193C77.1999 142.164 88.8154 94.2549 109.907 58.0976C117.599 44.9126 126.237 33.8136 135.587 24.9634Z" fill="white"/>
<path d="M373.036 244.6C369.701 244.6 366.728 242.453 365.693 239.258C355.378 207.398 330.01 182.887 297.835 173.692C294.751 172.81 292.533 170.114 292.263 166.918C284.983 80.5612 242.309 15.44 193 15.44C188.737 15.44 185.28 11.9837 185.28 7.71999C185.28 3.45624 188.737 0 193 0C244.552 0 293.019 20.0751 329.471 56.5289C365.924 92.9811 386 141.448 386 193C386 208.412 384.163 223.789 380.54 238.702C379.724 242.06 376.779 244.465 373.327 244.595C373.23 244.599 373.132 244.6 373.036 244.6ZM307.167 160.428C333.592 169.304 355.64 187.278 369.669 210.828C370.261 204.911 370.56 198.958 370.56 193C370.56 115.117 320.162 48.788 250.263 24.9124C257.46 31.6828 264.237 39.768 270.461 49.0837C289.874 78.1402 302.83 117.511 307.167 160.428Z" fill="white"/>
<path d="M193 385.999C188.737 385.999 185.28 382.542 185.28 378.279C185.28 374.016 188.737 370.559 193 370.559C203.137 370.559 213.179 367.811 222.845 362.391C224.964 361.204 227.517 361.083 229.737 362.062C232.829 363.426 236.032 364.648 239.259 365.692C242.546 366.756 244.725 369.874 244.596 373.326C244.466 376.778 242.06 379.723 238.703 380.539C223.789 384.162 208.412 385.999 193 385.999Z" fill="white"/>
<path d="M193 386C161.272 386 131.762 365.366 109.907 327.902C88.8157 291.745 77.2002 243.836 77.2002 193C77.2002 142.164 88.8157 94.2549 109.907 58.0976C131.762 20.6332 161.272 0 193 0C221.804 0 249.313 17.4317 270.461 49.0837C290.578 79.1932 303.762 120.385 307.606 165.114C307.662 165.491 307.691 165.876 307.691 166.269C307.691 170.521 304.254 173.97 300.007 173.989C299.311 173.989 298.551 173.897 297.835 173.692C288.889 171.136 279.591 169.84 270.2 169.84C214.861 169.84 169.84 214.861 169.84 270.2C169.84 309.952 193.351 346.009 229.736 362.062C232.413 363.243 234.192 365.836 234.331 368.757C234.472 371.679 232.947 374.429 230.396 375.859C218.395 382.588 205.814 386 193 386ZM193 15.44C166.991 15.44 142.217 33.3527 123.245 65.877C103.509 99.7091 92.6402 144.856 92.6402 193C92.6402 241.143 103.509 286.29 123.245 320.123C142.217 352.648 166.991 370.56 193 370.56C198.274 370.56 203.523 369.815 208.706 368.339C175.26 347.366 154.4 310.422 154.4 270.2C154.4 206.348 206.348 154.4 270.2 154.4C277.264 154.4 284.284 155.037 291.178 156.299C281.436 75.2807 240.266 15.44 193 15.44Z" fill="white"/>
<path d="M270.2 386C206.348 386 154.4 334.052 154.4 270.2C154.4 206.348 206.348 154.4 270.2 154.4C334.052 154.4 386 206.348 386 270.2C386 334.052 334.052 386 270.2 386ZM270.2 169.84C214.861 169.84 169.84 214.861 169.84 270.2C169.84 325.539 214.861 370.56 270.2 370.56C325.539 370.56 370.56 325.539 370.56 270.2C370.56 214.861 325.539 169.84 270.2 169.84Z" fill="white"/>
<path d="M193 200.72C188.737 200.72 185.28 197.263 185.28 193V7.71999C185.28 3.45624 188.737 0 193 0C197.263 0 200.72 3.45624 200.72 7.71999V193C200.72 197.263 197.263 200.72 193 200.72Z" fill="white"/>
<circle cx="270.556" cy="326.551" r="14.4154" stroke="white" stroke-width="12"/>
<path d="M290.214 215.885C290.214 224.971 286.119 275.522 277.109 288.547H264.005C254.708 277.824 250.899 224.037 250.899 215.885C250.899 206.799 259.7 199.433 270.557 199.433C281.413 199.433 290.214 206.799 290.214 215.885Z" stroke="white" stroke-width="12"/>
</svg>
