<svg width="32" height="32" viewBox="0 0 32 32" fill="none" xmlns="http://www.w3.org/2000/svg">
<path fill-rule="evenodd" clip-rule="evenodd" d="M21.7143 2.51429H10.2857C5.99367 2.51429 2.51429 5.99367 2.51429 10.2857V21.7143C2.51429 26.0063 5.99367 29.4857 10.2857 29.4857H21.7143C26.0063 29.4857 29.4857 26.0063 29.4857 21.7143V10.2857C29.4857 5.99367 26.0063 2.51429 21.7143 2.51429ZM10.2857 0C4.60507 0 0 4.60507 0 10.2857V21.7143C0 27.3949 4.60507 32 10.2857 32H21.7143C27.3949 32 32 27.3949 32 21.7143V10.2857C32 4.60507 27.3949 0 21.7143 0H10.2857Z" fill="white"/>
<g clip-path="url(#clip0)">
<path d="M20.5714 6.86098L18.2002 6.85718C15.5362 6.85718 13.8146 8.62349 13.8146 11.3573V13.4322H11.4305C11.2244 13.4322 11.0576 13.5992 11.0576 13.8052V16.8115C11.0576 17.0175 11.2246 17.1843 11.4305 17.1843H13.8146V24.77C13.8146 24.9761 13.9815 25.1429 14.1875 25.1429H17.2981C17.5041 25.1429 17.671 24.9759 17.671 24.77V17.1843H20.4586C20.6646 17.1843 20.8315 17.0175 20.8315 16.8115L20.8326 13.8052C20.8326 13.7063 20.7932 13.6116 20.7234 13.5416C20.6536 13.4716 20.5585 13.4322 20.4596 13.4322H17.671V11.6733C17.671 10.8279 17.8724 10.3987 18.9737 10.3987L20.571 10.3982C20.7769 10.3982 20.9437 10.2311 20.9437 10.0253V7.23384C20.9437 7.0282 20.7771 6.86136 20.5714 6.86098Z" fill="white"/>
</g>
<defs>
<clipPath id="clip0">
<rect width="18.2857" height="18.2857" fill="white" transform="translate(6.85742 6.85718)"/>
</clipPath>
</defs>
</svg>
