<svg width="19" height="21" viewBox="0 0 19 21" fill="none" xmlns="http://www.w3.org/2000/svg">
<path fill-rule="evenodd" clip-rule="evenodd" d="M9.40132 5.75219C7.43557 5.75219 5.84433 7.31712 5.84433 9.24474C5.84433 11.1724 7.43557 12.7373 9.40132 12.7373C11.3671 12.7373 12.9583 11.1724 12.9583 9.24474C12.9583 7.31712 11.3671 5.75219 9.40132 5.75219ZM5.84433 17.2633C6.93383 17.7304 8.13685 17.9895 9.40132 17.9895C14.3161 17.9895 18.3026 14.0756 18.3026 9.24474C18.3026 4.41389 14.3161 0.500001 9.40132 0.5C4.48654 0.499999 0.500001 4.41389 0.5 9.24474V17.9087C0.5 19.3591 1.69637 20.5348 3.17217 20.5348C4.64796 20.5348 5.84433 19.3591 5.84433 17.9087V17.2633Z" fill="white"/>
</svg>
