<svg width="128" height="128" viewBox="0 0 128 128" fill="none" xmlns="http://www.w3.org/2000/svg">
<g filter="url(#filter0_d)">
<rect x="18" y="4" width="92" height="92" rx="30" fill="url(#paint0_linear)"/>
</g>
<rect x="37" y="24.8696" width="53.3913" height="53.3913" rx="6" stroke="url(#paint1_linear)" stroke-width="4"/>
<path d="M88.0872 39.2174C93.9462 39.2174 98.6959 34.4677 98.6959 28.6087C98.6959 22.7497 93.9462 18 88.0872 18C82.2282 18 77.4785 22.7497 77.4785 28.6087C77.4785 34.4677 82.2282 39.2174 88.0872 39.2174Z" fill="url(#paint2_linear)" stroke="#EFF4FF" stroke-width="4"/>
<path d="M92.3919 28.6088C92.3919 30.986 90.4648 32.9131 88.0876 32.9131C85.7103 32.9131 83.7832 30.986 83.7832 28.6088C83.7832 26.2316 85.7103 24.3044 88.0876 24.3044C90.4648 24.3044 92.3919 26.2316 92.3919 28.6088Z" fill="#F0F3FF"/>
<defs>
<filter id="filter0_d" x="0" y="0" width="128" height="128" filterUnits="userSpaceOnUse" color-interpolation-filters="sRGB">
<feFlood flood-opacity="0" result="BackgroundImageFix"/>
<feColorMatrix in="SourceAlpha" type="matrix" values="0 0 0 0 0 0 0 0 0 0 0 0 0 0 0 0 0 0 127 0"/>
<feMorphology radius="16" operator="erode" in="SourceAlpha" result="effect1_dropShadow"/>
<feOffset dy="14"/>
<feGaussianBlur stdDeviation="17"/>
<feColorMatrix type="matrix" values="0 0 0 0 0.231079 0 0 0 0 0.108177 0 0 0 0 0.3875 0 0 0 0.45 0"/>
<feBlend mode="normal" in2="BackgroundImageFix" result="effect1_dropShadow"/>
<feBlend mode="normal" in="SourceGraphic" in2="effect1_dropShadow" result="shape"/>
</filter>
<linearGradient id="paint0_linear" x1="18" y1="4" x2="125.82" y2="48.8768" gradientUnits="userSpaceOnUse">
<stop stop-color="#F7EEFF"/>
<stop stop-color="#F7EEFF"/>
<stop offset="0.981808" stop-color="#ECF8FF"/>
</linearGradient>
<linearGradient id="paint1_linear" x1="35" y1="22.8696" x2="104.184" y2="48.8125" gradientUnits="userSpaceOnUse">
<stop stop-color="#E6CBFF"/>
<stop offset="0.981808" stop-color="#C5E8FE"/>
</linearGradient>
<linearGradient id="paint2_linear" x1="79.4785" y1="20" x2="100.234" y2="27.7829" gradientUnits="userSpaceOnUse">
<stop stop-color="#E6CBFF"/>
<stop offset="0.981808" stop-color="#C5E8FE"/>
</linearGradient>
</defs>
</svg>
