<svg width="60" height="60" viewBox="0 0 60 60" fill="none" xmlns="http://www.w3.org/2000/svg">
<circle cx="30" cy="30" r="30" fill="white"/>
<path d="M23.6512 15.4833C22.4688 14.8298 21.0806 14.8449 19.9058 15.4928L33.675 28.1948L38.3006 23.5692L23.6512 15.4833Z" fill="url(#paint0_linear)"/>
<path d="M18.5289 16.7922C18.1927 17.3419 18 17.9708 18 18.6376V41.5787C18 42.2247 18.1757 42.8404 18.493 43.3787L32.3396 29.5321L18.5289 16.7922Z" fill="url(#paint1_linear)"/>
<path d="M44.4335 26.9539L40.0213 24.5193L35.0632 29.4755L41.1394 35.0795L44.4354 33.2606C45.6215 32.6033 46.3317 31.4247 46.3317 30.1063C46.3298 28.7879 45.6215 27.6093 44.4335 26.9539Z" fill="url(#paint2_linear)"/>
<path d="M33.7277 30.8127L19.8433 44.6972C20.4458 45.0409 21.1069 45.2223 21.7717 45.2223C22.4139 45.2223 23.0599 45.0598 23.651 44.7331L39.3978 36.0428L33.7277 30.8127Z" fill="url(#paint3_linear)"/>
<defs>
<linearGradient id="paint0_linear" x1="19.9058" y1="15" x2="39.7699" y2="25.3842" gradientUnits="userSpaceOnUse">
<stop stop-color="#E6CBFF"/>
<stop offset="0.981808" stop-color="#C5E8FE"/>
</linearGradient>
<linearGradient id="paint1_linear" x1="18" y1="16.7922" x2="36.9419" y2="20.6233" gradientUnits="userSpaceOnUse">
<stop stop-color="#E6CBFF"/>
<stop offset="0.981808" stop-color="#C5E8FE"/>
</linearGradient>
<linearGradient id="paint2_linear" x1="35.0632" y1="24.5193" x2="48.4189" y2="29.8633" gradientUnits="userSpaceOnUse">
<stop stop-color="#E6CBFF"/>
<stop offset="0.981808" stop-color="#C5E8FE"/>
</linearGradient>
<linearGradient id="paint3_linear" x1="19.8433" y1="30.8127" x2="41.2" y2="41.6807" gradientUnits="userSpaceOnUse">
<stop stop-color="#E6CBFF"/>
<stop offset="0.981808" stop-color="#C5E8FE"/>
</linearGradient>
</defs>
</svg>
