<svg width="32" height="32" viewBox="0 0 32 32" fill="none" xmlns="http://www.w3.org/2000/svg">
<g clip-path="url(#clip0)">
<path d="M16.3149 32.0003C16.209 32.0003 16.103 32.0003 15.9963 31.9998C13.488 32.0059 11.1704 31.9422 8.9165 31.805C6.8501 31.6793 4.96387 30.9651 3.46143 29.74C2.01172 28.5579 1.02173 26.9595 0.519043 24.9898C0.081543 23.275 0.0583496 21.5916 0.0361328 19.9634C0.0200195 18.7952 0.00341797 17.4109 0 16.0032C0.00341797 14.5896 0.0200195 13.2054 0.0361328 12.0372C0.0583496 10.4092 0.081543 8.72587 0.519043 7.01078C1.02173 5.04105 2.01172 3.44266 3.46143 2.26053C4.96387 1.03543 6.8501 0.321322 8.91675 0.195589C11.1707 0.0586261 13.4888 -0.0053388 16.0024 0.000764719C18.5115 -0.00460638 20.8284 0.0586261 23.0823 0.195589C25.1487 0.321322 27.0349 1.03543 28.5374 2.26053C29.9873 3.44266 30.9771 5.04105 31.4797 7.01078C31.9172 8.72563 31.9404 10.4092 31.9626 12.0372C31.9788 13.2054 31.9956 14.5896 31.9988 15.9974V16.0032C31.9956 17.4109 31.9788 18.7952 31.9626 19.9634C31.9404 21.5914 31.9175 23.2747 31.4797 24.9898C30.9771 26.9595 29.9873 28.5579 28.5374 29.74C27.0349 30.9651 25.1487 31.6793 23.0823 31.805C20.9238 31.9363 18.7065 32.0003 16.3149 32.0003ZM15.9963 29.4998C18.4639 29.5057 20.7295 29.4434 22.9304 29.3096C24.4929 29.2147 25.8477 28.7076 26.9575 27.8025C27.9834 26.9659 28.6899 25.8116 29.0574 24.3716C29.4216 22.9441 29.4426 21.4114 29.4629 19.9292C29.4788 18.7688 29.4954 17.3943 29.4988 16.0003C29.4954 14.606 29.4788 13.2317 29.4629 12.0713C29.4426 10.5892 29.4216 9.05644 29.0574 7.6287C28.6899 6.18876 27.9834 5.03446 26.9575 4.19779C25.8477 3.293 24.4929 2.78592 22.9304 2.69095C20.7295 2.55692 18.4639 2.49515 16.0022 2.50052C13.5352 2.49466 11.2693 2.55692 9.06836 2.69095C7.50586 2.78592 6.15112 3.293 5.04126 4.19779C4.01538 5.03446 3.30884 6.18876 2.94141 7.6287C2.57715 9.05644 2.55615 10.5889 2.53589 12.0713C2.52002 13.2327 2.50342 14.608 2.5 16.0032C2.50342 17.3924 2.52002 18.7679 2.53589 19.9292C2.55615 21.4114 2.57715 22.9441 2.94141 24.3716C3.30884 25.8116 4.01538 26.9659 5.04126 27.8025C6.15112 28.7073 7.50586 29.2144 9.06836 29.3094C11.2693 29.4434 13.5356 29.5059 15.9963 29.4998ZM15.9368 23.8128C11.6292 23.8128 8.12427 20.3082 8.12427 16.0003C8.12427 11.6924 11.6292 8.18778 15.9368 8.18778C20.2446 8.18778 23.7493 11.6924 23.7493 16.0003C23.7493 20.3082 20.2446 23.8128 15.9368 23.8128ZM15.9368 10.6878C13.0076 10.6878 10.6243 13.0711 10.6243 16.0003C10.6243 18.9295 13.0076 21.3128 15.9368 21.3128C18.8662 21.3128 21.2493 18.9295 21.2493 16.0003C21.2493 13.0711 18.8662 10.6878 15.9368 10.6878ZM24.6243 5.68778C23.5889 5.68778 22.7493 6.52714 22.7493 7.56278C22.7493 8.59843 23.5889 9.43778 24.6243 9.43778C25.6599 9.43778 26.4993 8.59843 26.4993 7.56278C26.4993 6.52714 25.6599 5.68778 24.6243 5.68778Z" fill="white"/>
</g>
<defs>
<clipPath id="clip0">
<rect width="32" height="32" fill="white"/>
</clipPath>
</defs>
</svg>
