<svg width="115" height="28" viewBox="0 0 115 28" fill="none" xmlns="http://www.w3.org/2000/svg">
<g opacity="0.05">
<path d="M31.8333 8.58333C31.8333 13.3238 27.9904 17.1667 23.25 17.1667C18.5095 17.1667 14.6667 13.3238 14.6667 8.58333C14.6667 3.84289 18.5095 0 23.25 0C27.9904 0 31.8333 3.84289 31.8333 8.58333Z" fill="#212121"/>
<path fill-rule="evenodd" clip-rule="evenodd" d="M60.7009 12.8395C59.1996 12.8395 57.9826 14.0565 57.9826 15.5578L57.9826 24.8723C57.9826 26.3226 56.8069 27.4984 55.3565 27.4984C53.9062 27.4984 52.7304 26.3226 52.7304 24.8723V15.5578C52.7304 11.1558 56.2989 7.58734 60.7009 7.58734C62.756 7.58734 64.6404 8.36728 66.0628 9.65063C67.4774 8.36847 69.3544 7.58734 71.4139 7.58734C75.8159 7.58734 79.3844 11.1558 79.3844 15.5578V15.5593L79.374 24.8752C79.3723 26.3256 78.1953 27.5 76.7449 27.4984C75.2946 27.4967 74.1202 26.3197 74.1218 24.8693L74.1322 15.5578V15.5569C74.1317 14.056 72.9149 12.8395 71.4139 12.8395C69.9127 12.8395 68.6957 14.0565 68.6957 15.5578V24.8723C68.6957 26.3226 67.5199 27.4984 66.0696 27.4984C64.6192 27.4984 63.4435 26.3226 63.4435 24.8723V15.5578C63.4435 14.0721 62.2177 12.8395 60.7009 12.8395Z" fill="#212121"/>
<path fill-rule="evenodd" clip-rule="evenodd" d="M111.449 12.8395C109.948 12.8395 108.731 14.0565 108.731 15.5578V24.8723C108.731 26.3226 107.555 27.4984 106.104 27.4984C104.654 27.4984 103.478 26.3226 103.478 24.8723V15.5578C103.478 11.1558 107.047 7.58734 111.449 7.58734C112.899 7.58734 114.075 8.76309 114.075 10.2134C114.075 11.6638 112.899 12.8395 111.449 12.8395Z" fill="#212121"/>
<path d="M27.3044 15.3907C26.5038 15.7733 25.6074 15.9874 24.6609 15.9874C23.7282 15.9874 22.844 15.7794 22.0522 15.4072V24.9266C22.0522 26.3769 23.228 27.5527 24.6783 27.5527C26.1287 27.5527 27.3044 26.3769 27.3044 24.9266V15.3907Z" fill="#212121"/>
<path d="M30.103 12.6917C30.5481 11.8416 30.7999 10.8743 30.7999 9.84822C30.7999 9.07409 30.6566 8.33343 30.3951 7.65131C30.5813 7.60944 30.7749 7.58734 30.9738 7.58734C33.0294 7.58734 34.9088 8.36664 36.3269 9.64757C37.741 8.36723 39.6168 7.58734 41.6747 7.58734C46.0766 7.58734 49.6451 11.1558 49.6451 15.5578V15.5593L49.6347 24.8752C49.633 26.3256 48.456 27.5 47.0056 27.4984C45.5553 27.4967 44.3809 26.3197 44.3825 24.8693L44.3929 15.5578V15.5569C44.3924 14.056 43.1756 12.8395 41.6747 12.8395C40.1734 12.8395 38.9564 14.0565 38.9564 15.5578V24.8723C38.9564 26.3226 37.7806 27.4984 36.3303 27.4984C34.8799 27.4984 33.7042 26.3226 33.7042 24.8723V15.5578C33.7042 14.0643 32.4828 12.8395 30.9738 12.8395C30.6686 12.8395 30.3755 12.7875 30.103 12.6917Z" fill="#212121"/>
<path fill-rule="evenodd" clip-rule="evenodd" d="M10.139 12.7347C8.2071 12.7347 6.6433 14.2996 6.6433 16.2273C6.6433 18.1549 8.2071 19.7198 10.139 19.7198C12.0708 19.7198 13.6346 18.1549 13.6346 16.2273C13.6346 14.2996 12.0708 12.7347 10.139 12.7347ZM6.6433 24.2458C7.71402 24.7129 8.8963 24.972 10.139 24.972C14.969 24.972 18.8868 21.0581 18.8868 16.2273C18.8868 11.3964 14.969 7.48253 10.139 7.48253C5.30892 7.48253 1.39111 11.3964 1.39111 16.2273V24.8913C1.39111 26.3416 2.56686 27.5174 4.01721 27.5174C5.46756 27.5174 6.6433 26.3416 6.6433 24.8913V24.2458Z" fill="#212121"/>
<path fill-rule="evenodd" clip-rule="evenodd" d="M89.8786 22.0964L98.6198 16.9951C100.393 15.96 101.497 13.2262 99.6363 11.145C97.7254 9.00773 94.8904 7.69138 91.8609 7.69138C86.086 7.69138 82.0869 12.3006 82.0869 17.7784C82.0869 23.4069 86.6498 27.9697 92.2783 27.9697C94.7417 27.9697 97.0072 27.0923 98.769 25.6357C99.8868 24.7116 100.044 23.0562 99.1196 21.9384C98.1955 20.8206 96.5401 20.6637 95.4223 21.5878C94.5672 22.2948 93.4756 22.7175 92.2783 22.7175C91.4073 22.7175 90.5891 22.4921 89.8786 22.0964ZM91.8609 12.9436C89.3655 12.9436 87.4692 14.7715 87.3456 17.4935L94.1986 13.4941C93.493 13.1437 92.6927 12.9436 91.8609 12.9436Z" fill="#212121"/>
</g>
<ellipse cx="23.2696" cy="8.47423" rx="3.51305" ry="3.51305" fill="#7B46AC"/>
<path fill-rule="evenodd" clip-rule="evenodd" d="M59.3098 11.4481C57.8085 11.4481 56.5915 12.6651 56.5915 14.1663L56.5915 23.4808C56.5915 24.9312 55.4158 26.1069 53.9654 26.1069C52.515 26.1069 51.3393 24.9312 51.3393 23.4808V14.1663C51.3393 9.76438 54.9078 6.19588 59.3098 6.19588C61.3649 6.19588 63.2492 6.97581 64.6717 8.25917C66.0862 6.97701 67.9633 6.19588 70.0228 6.19588C74.4248 6.19588 77.9933 9.76438 77.9933 14.1663V14.1678L77.9828 23.4837C77.9812 24.9341 76.8042 26.1085 75.3538 26.1069C73.9035 26.1053 72.729 24.9282 72.7307 23.4779L72.7411 14.1663V14.1654C72.7406 12.6646 71.5238 11.4481 70.0228 11.4481C68.5216 11.4481 67.3046 12.6651 67.3046 14.1663V23.4808C67.3046 24.9312 66.1288 26.1069 64.6785 26.1069C63.2281 26.1069 62.0524 24.9312 62.0524 23.4808V14.1663C62.0524 12.6806 60.8266 11.4481 59.3098 11.4481Z" fill="#271D30"/>
<path fill-rule="evenodd" clip-rule="evenodd" d="M110.058 11.4481C108.556 11.4481 107.339 12.6651 107.339 14.1663V23.4808C107.339 24.9312 106.164 26.1069 104.713 26.1069C103.263 26.1069 102.087 24.9312 102.087 23.4808V14.1663C102.087 9.76438 105.656 6.19588 110.058 6.19588C111.508 6.19588 112.684 7.37163 112.684 8.82198C112.684 10.2723 111.508 11.4481 110.058 11.4481Z" fill="#271D30"/>
<path d="M25.913 14.4967C25.1038 14.8513 24.2096 15.0482 23.2695 15.0482C22.3429 15.0482 21.4609 14.8569 20.6608 14.5118V23.5351C20.6608 24.9855 21.8366 26.1612 23.2869 26.1612C24.7373 26.1612 25.913 24.9855 25.913 23.5351V14.4967Z" fill="#271D30"/>
<path d="M29.1616 11.4145C29.609 10.525 29.8609 9.52031 29.8609 8.45676C29.8609 7.66348 29.7208 6.90293 29.4639 6.19852C29.5033 6.19677 29.5428 6.19588 29.5826 6.19588C31.6383 6.19588 33.5177 6.97517 34.9358 8.25611C36.3499 6.97577 38.2256 6.19588 40.2835 6.19588C44.6855 6.19588 48.254 9.76438 48.254 14.1663V14.1678L48.2435 23.4837C48.2419 24.9341 47.0649 26.1085 45.6145 26.1069C44.1642 26.1053 42.9897 24.9282 42.9914 23.4779L43.0018 14.1663V14.1654C43.0013 12.6646 41.7845 11.4481 40.2835 11.4481C38.7823 11.4481 37.5653 12.6651 37.5653 14.1663L37.5653 23.4808C37.5653 24.9312 36.3895 26.1069 34.9392 26.1069C33.4888 26.1069 32.3131 24.9312 32.3131 23.4808L32.3131 14.1663C32.3131 12.6729 31.0917 11.4481 29.5826 11.4481C29.4393 11.4481 29.2987 11.4366 29.1616 11.4145Z" fill="#271D30"/>
<path fill-rule="evenodd" clip-rule="evenodd" d="M8.74785 11.3433C6.81599 11.3433 5.25219 12.9082 5.25219 14.8358C5.25219 16.7634 6.81599 18.3284 8.74785 18.3284C10.6797 18.3284 12.2435 16.7634 12.2435 14.8358C12.2435 12.9082 10.6797 11.3433 8.74785 11.3433ZM5.25219 22.8544C6.3229 23.3215 7.50518 23.5805 8.74785 23.5805C13.5779 23.5805 17.4957 19.6666 17.4957 14.8358C17.4957 10.005 13.5779 6.09106 8.74785 6.09106C3.91781 6.09106 5.30742e-07 10.005 0 14.8358V23.4998C0 24.9502 1.17574 26.1259 2.62609 26.1259C4.07645 26.1259 5.25219 24.9502 5.25219 23.4998V22.8544Z" fill="#271D30"/>
<path fill-rule="evenodd" clip-rule="evenodd" d="M88.4875 20.7051L97.2287 15.6037C99.0022 14.5687 100.106 11.8349 98.2451 9.75362C96.3343 7.61639 93.4993 6.30005 90.4698 6.30005C84.6949 6.30005 80.6958 10.9093 80.6958 16.387C80.6958 22.0155 85.2586 26.5784 90.8872 26.5784C93.3506 26.5784 95.6161 25.701 97.3779 24.2444C98.4957 23.3202 98.6527 21.6649 97.7285 20.5471C96.8043 19.4293 95.149 19.2723 94.0312 20.1965C93.1761 20.9035 92.0845 21.3262 90.8872 21.3262C90.0162 21.3262 89.198 21.1008 88.4875 20.7051ZM90.4698 11.5522C87.9743 11.5522 86.0781 13.3802 85.9544 16.1022L92.8075 12.1028C92.1019 11.7524 91.3016 11.5522 90.4698 11.5522Z" fill="#271D30"/>
</svg>
