<svg width="117" height="32" viewBox="0 0 117 32" fill="none" xmlns="http://www.w3.org/2000/svg">
<g opacity="0.05">
<path d="M32.3918 9.08333C32.3918 13.8238 28.4815 17.6667 23.6579 17.6667C18.8343 17.6667 14.924 13.8238 14.924 9.08333C14.924 4.34289 18.8343 0.5 23.6579 0.5C28.4815 0.5 32.3918 4.34289 32.3918 9.08333Z" fill="white"/>
<path fill-rule="evenodd" clip-rule="evenodd" d="M61.7659 13.3394C60.2383 13.3394 58.9999 14.5564 58.9999 16.0577L58.9999 25.3722C58.9999 26.8225 57.8035 27.9982 56.3277 27.9982C54.8519 27.9982 53.6556 26.8225 53.6556 25.3722V16.0577C53.6556 11.6557 57.2867 8.08724 61.7659 8.08724C63.857 8.08724 65.7745 8.86717 67.2219 10.1505C68.6612 8.86837 70.5712 8.08724 72.6669 8.08724C77.1461 8.08724 80.7772 11.6557 80.7772 16.0577V16.0592L80.7665 25.3751C80.7649 26.8254 79.5672 27.9999 78.0914 27.9982C76.6156 27.9966 75.4206 26.8196 75.4222 25.3692L75.4328 16.0577V16.0568C75.4323 14.5559 74.1942 13.3394 72.6669 13.3394C71.1393 13.3394 69.9009 14.5564 69.9009 16.0577V25.3722C69.9009 26.8225 68.7046 27.9982 67.2288 27.9982C65.753 27.9982 64.5566 26.8225 64.5566 25.3722V16.0577C64.5566 14.5719 63.3093 13.3394 61.7659 13.3394Z" fill="white"/>
<path fill-rule="evenodd" clip-rule="evenodd" d="M113.404 13.3394C111.877 13.3394 110.638 14.5564 110.638 16.0577V25.3722C110.638 26.8225 109.442 27.9982 107.966 27.9982C106.49 27.9982 105.294 26.8225 105.294 25.3722V16.0577C105.294 11.6557 108.925 8.08724 113.404 8.08724C114.88 8.08724 116.076 9.26298 116.076 10.7133C116.076 12.1637 114.88 13.3394 113.404 13.3394Z" fill="white"/>
<path d="M27.7835 15.8906C26.9688 16.2732 26.0567 16.4873 25.0936 16.4873C24.1445 16.4873 23.2448 16.2793 22.4391 15.9071V25.4265C22.4391 26.8768 23.6355 28.0526 25.1113 28.0526C26.5871 28.0526 27.7835 26.8768 27.7835 25.4265V15.8906Z" fill="white"/>
<path d="M30.6312 13.1916C31.0841 12.3415 31.3402 11.3742 31.3402 10.3481C31.3402 9.57399 31.1944 8.83333 30.9283 8.15121C31.1178 8.10934 31.3149 8.08724 31.5172 8.08724C33.6089 8.08724 35.5213 8.86653 36.9642 10.1475C38.4032 8.86713 40.3118 8.08724 42.4058 8.08724C46.885 8.08724 50.5161 11.6557 50.5161 16.0577V16.0592L50.5055 25.3751C50.5038 26.8254 49.3061 27.9999 47.8303 27.9982C46.3545 27.9966 45.1595 26.8196 45.1611 25.3692L45.1718 16.0577V16.0568C45.1713 14.5559 43.9331 13.3394 42.4058 13.3394C40.8782 13.3394 39.6398 14.5564 39.6398 16.0577V25.3722C39.6398 26.8225 38.4435 27.9982 36.9677 27.9982C35.4919 27.9982 34.2955 26.8225 34.2955 25.3722L34.2955 16.0577C34.2955 14.5642 33.0527 13.3394 31.5172 13.3394C31.2066 13.3394 30.9084 13.2874 30.6312 13.1916Z" fill="white"/>
<path fill-rule="evenodd" clip-rule="evenodd" d="M10.3169 13.2346C8.3511 13.2346 6.75986 14.7995 6.75986 16.7272C6.75986 18.6548 8.3511 20.2197 10.3169 20.2197C12.2826 20.2197 13.8738 18.6548 13.8738 16.7272C13.8738 14.7995 12.2826 13.2346 10.3169 13.2346ZM6.75986 24.7457C7.84936 25.2128 9.05238 25.4719 10.3169 25.4719C15.2316 25.4719 19.2182 21.558 19.2182 16.7272C19.2182 11.8963 15.2316 7.98242 10.3169 7.98242C5.40207 7.98242 1.41553 11.8963 1.41553 16.7272V25.3912C1.41553 26.8415 2.6119 28.0173 4.08769 28.0173C5.56349 28.0173 6.75986 26.8415 6.75986 25.3912V24.7457Z" fill="white"/>
<path fill-rule="evenodd" clip-rule="evenodd" d="M91.4555 22.5963L100.35 17.495C102.155 16.4599 103.278 13.7261 101.384 11.6449C99.4399 9.50762 96.5552 8.19128 93.4725 8.19128C87.5964 8.19128 83.5271 12.8005 83.5271 18.2783C83.5271 23.9068 88.17 28.4696 93.8972 28.4696C96.4039 28.4696 98.7091 27.5922 100.502 26.1356C101.639 25.2114 101.799 23.5561 100.859 22.4383C99.9183 21.3205 98.2339 21.1636 97.0965 22.0877C96.2264 22.7947 95.1156 23.2174 93.8972 23.2174C93.011 23.2174 92.1784 22.992 91.4555 22.5963ZM93.4725 13.4435C90.9333 13.4435 89.0038 15.2714 88.878 17.9934L95.8512 13.994C95.1333 13.6436 94.3189 13.4435 93.4725 13.4435Z" fill="white"/>
</g>
<ellipse cx="23.6778" cy="8.97399" rx="3.57469" ry="3.51305" fill="white"/>
<path fill-rule="evenodd" clip-rule="evenodd" d="M60.3503 11.9481C58.8227 11.9481 57.5843 13.1651 57.5843 14.6663L57.5843 23.9808C57.5843 25.4312 56.388 26.6069 54.9122 26.6069C53.4364 26.6069 52.24 25.4312 52.24 23.9808V14.6663C52.24 10.2644 55.8711 6.69588 60.3503 6.69588C62.4415 6.69588 64.3589 7.47581 65.8063 8.75917C67.2457 7.47701 69.1557 6.69588 71.2513 6.69588C75.7305 6.69588 79.3616 10.2644 79.3616 14.6663V14.6678L79.351 23.9837C79.3493 25.4341 78.1516 26.6085 76.6758 26.6069C75.2 26.6053 74.005 25.4282 74.0067 23.9779L74.0173 14.6663V14.6654C74.0168 13.1646 72.7786 11.9481 71.2513 11.9481C69.7237 11.9481 68.4854 13.1651 68.4854 14.6663V23.9808C68.4854 25.4312 67.289 26.6069 65.8132 26.6069C64.3374 26.6069 63.141 25.4312 63.141 23.9808V14.6663C63.141 13.1806 61.8937 11.9481 60.3503 11.9481Z" fill="white"/>
<path fill-rule="evenodd" clip-rule="evenodd" d="M111.989 11.9481C110.461 11.9481 109.223 13.1651 109.223 14.6663V23.9808C109.223 25.4312 108.026 26.6069 106.55 26.6069C105.075 26.6069 103.878 25.4312 103.878 23.9808V14.6663C103.878 10.2644 107.509 6.69588 111.989 6.69588C113.464 6.69588 114.661 7.87163 114.661 9.32198C114.661 10.7723 113.464 11.9481 111.989 11.9481Z" fill="white"/>
<path d="M26.3676 14.9967C25.5442 15.3513 24.6344 15.5482 23.6778 15.5482C22.7348 15.5482 21.8374 15.3569 21.0233 15.0118V24.0351C21.0233 25.4855 22.2197 26.6612 23.6955 26.6612C25.1713 26.6612 26.3676 25.4855 26.3676 24.0351V14.9967Z" fill="white"/>
<path d="M29.6732 11.9145C30.1285 11.025 30.3848 10.0203 30.3848 8.95676C30.3848 8.16348 30.2422 7.40293 29.9808 6.69852C30.0209 6.69677 30.0611 6.69588 30.1016 6.69588C32.1934 6.69588 34.1057 7.47517 35.5487 8.75611C36.9876 7.47577 38.8963 6.69588 40.9903 6.69588C45.4694 6.69588 49.1005 10.2644 49.1005 14.6663V14.6678L49.0899 23.9837C49.0883 25.4341 47.8906 26.6085 46.4148 26.6069C44.939 26.6053 43.7439 25.4282 43.7456 23.9779L43.7562 14.6663V14.6654C43.7557 13.1646 42.5175 11.9481 40.9903 11.9481C39.4627 11.9481 38.2243 13.1651 38.2243 14.6663L38.2243 23.9808C38.2243 25.4312 37.0279 26.6069 35.5521 26.6069C34.0763 26.6069 32.88 25.4312 32.88 23.9808V14.6663C32.88 13.1729 31.6371 11.9481 30.1016 11.9481C29.9558 11.9481 29.8127 11.9366 29.6732 11.9145Z" fill="white"/>
<path fill-rule="evenodd" clip-rule="evenodd" d="M8.90132 11.8433C6.93557 11.8433 5.34433 13.4082 5.34433 15.3358C5.34433 17.2634 6.93557 18.8284 8.90132 18.8284C10.8671 18.8284 12.4583 17.2634 12.4583 15.3358C12.4583 13.4082 10.8671 11.8433 8.90132 11.8433ZM5.34433 23.3544C6.43383 23.8215 7.63685 24.0805 8.90132 24.0805C13.8161 24.0805 17.8026 20.1666 17.8026 15.3358C17.8026 10.505 13.8161 6.59106 8.90132 6.59106C3.98654 6.59106 5.40053e-07 10.505 0 15.3358V23.9998C0 25.4502 1.19637 26.6259 2.67217 26.6259C4.14796 26.6259 5.34433 25.4502 5.34433 23.9998V23.3544Z" fill="white"/>
<path fill-rule="evenodd" clip-rule="evenodd" d="M90.0399 21.2051L98.9344 16.1037C100.739 15.0687 101.862 12.3349 99.9688 10.2536C98.0243 8.11639 95.1397 6.80005 92.057 6.80005C86.1808 6.80005 82.1115 11.4093 82.1115 16.887C82.1115 22.5155 86.7544 27.0784 92.4817 27.0784C94.9883 27.0784 97.2935 26.201 99.0863 24.7444C100.224 23.8202 100.383 22.1649 99.443 21.0471C98.5027 19.9293 96.8183 19.7723 95.6809 20.6965C94.8108 21.4035 93.7 21.8262 92.4817 21.8262C91.5955 21.8262 90.7628 21.6008 90.0399 21.2051ZM92.057 12.0522C89.5178 12.0522 87.5883 13.8802 87.4624 16.6022L94.4357 12.6028C93.7177 12.2524 92.9033 12.0522 92.057 12.0522Z" fill="white"/>
</svg>
