<svg width="343" height="365" viewBox="0 0 343 365" fill="none" xmlns="http://www.w3.org/2000/svg">
<path d="M340.567 194.647H341.784C342.455 194.647 343 195.192 343 195.863V268.856C343 269.528 342.455 270.073 341.784 270.073H340.567V194.647Z" fill="url(#paint0_linear)"/>
<path d="M341.067 195.147H341.784C342.179 195.147 342.5 195.468 342.5 195.863V268.856C342.5 269.252 342.179 269.573 341.784 269.573H341.067V195.147Z" stroke="#5D396B" stroke-opacity="0.3"/>
<path d="M2.43262 286.293L1.2163 286.293C0.544549 286.293 -1.13965e-05 285.749 -1.13378e-05 285.077L-7.36798e-06 239.659C-7.30925e-06 238.987 0.544554 238.442 1.2163 238.442L2.43262 238.442L2.43262 286.293Z" fill="url(#paint1_linear)"/>
<path d="M1.93262 285.793L1.2163 285.793C0.820782 285.793 0.499989 285.472 0.499989 285.077L0.499993 239.659C0.499993 239.263 0.820787 238.942 1.2163 238.942L1.93262 238.942L1.93262 285.793Z" stroke="#5D396B" stroke-opacity="0.3"/>
<path d="M2.43262 225.466L1.2163 225.466C0.544549 225.466 -1.16349e-05 224.921 -1.15762e-05 224.249L-7.6064e-06 178.832C-7.54767e-06 178.16 0.544554 177.615 1.2163 177.615L2.43262 177.615L2.43262 225.466Z" fill="url(#paint2_linear)"/>
<path d="M1.93262 224.966L1.2163 224.966C0.820782 224.966 0.499988 224.645 0.499988 224.249L0.499992 178.832C0.499992 178.436 0.820785 178.115 1.2163 178.115L1.93262 178.115L1.93262 224.966Z" stroke="#5D396B" stroke-opacity="0.3"/>
<path d="M2.43262 156.529L1.2163 156.529C0.544553 156.529 -9.0123e-06 155.984 -8.95357e-06 155.312L-7.18135e-06 135.036C-7.12262e-06 134.365 0.544554 133.82 1.2163 133.82L2.43262 133.82L2.43262 156.529Z" fill="url(#paint3_linear)"/>
<path d="M1.93262 156.029L1.2163 156.029C0.820785 156.029 0.499991 155.708 0.499991 155.312L0.499993 135.036C0.499993 134.641 0.820786 134.32 1.2163 134.32L1.93262 134.32L1.93262 156.029Z" stroke="#5D396B" stroke-opacity="0.3"/>
<path d="M2.93262 73.8036C2.93262 54.1405 2.93878 44.4275 5.48781 36.581C10.652 20.6841 23.113 8.22083 39.0067 3.05567C46.8518 0.506171 56.5628 0.5 76.2222 0.5H266.778C286.437 0.5 296.148 0.506171 303.993 3.05567C319.887 8.22083 332.348 20.6841 337.512 36.5809C340.061 44.4275 340.067 54.1405 340.067 73.8036V622.059C340.067 641.722 340.061 651.435 337.512 659.282C332.348 675.179 319.887 687.642 303.993 692.807C296.148 695.357 286.437 695.363 266.778 695.363H76.2222C56.5628 695.363 46.8518 695.357 39.0067 692.807C23.113 687.642 10.652 675.179 5.48781 659.282C2.93878 651.435 2.93262 641.722 2.93262 622.059V73.8036Z" fill="#5D396B" stroke="#A381AD"/>
<path fill-rule="evenodd" clip-rule="evenodd" d="M267.102 1.62194H75.8975C56.5158 1.62194 47.0173 1.63195 39.353 4.1227C23.8007 9.17689 11.6076 21.3724 6.55432 36.9276C4.06404 44.5933 4.05404 54.0937 4.05404 73.4791V622.383C4.05404 641.769 4.06404 651.269 6.55432 658.935C11.6076 674.49 23.8007 686.686 39.353 691.74C47.0173 694.231 56.5158 694.241 75.8976 694.241H267.102C286.484 694.241 295.982 694.231 303.646 691.74C319.199 686.686 331.392 674.49 336.445 658.935C338.935 651.269 338.945 641.769 338.945 622.383V73.4791C338.945 54.0937 338.935 44.5933 336.445 36.9276C331.392 21.3724 319.199 9.17689 303.646 4.1227C295.982 1.63195 286.484 1.62194 267.102 1.62194ZM5.78313 36.677C3.24316 44.4957 3.24316 54.1568 3.24316 73.4791V622.383C3.24316 641.706 3.24316 651.367 5.78313 659.186C10.9166 674.988 23.3033 687.377 39.1024 692.511C46.9196 695.052 56.5789 695.052 75.8976 695.052H267.102C286.42 695.052 296.08 695.052 303.897 692.511C319.696 687.377 332.083 674.988 337.216 659.186C339.756 651.367 339.756 641.706 339.756 622.383V73.4791C339.756 54.1568 339.756 44.4957 337.216 36.677C332.083 20.8749 319.696 8.48578 303.897 3.35137C296.08 0.810913 286.42 0.810913 267.102 0.810913H75.8975C56.5789 0.810913 46.9196 0.810913 39.1024 3.35137C23.3033 8.48578 10.9166 20.8749 5.78313 36.677Z" fill="#C8A7CD"/>
<path d="M6.4873 72.1816C6.4873 54.067 6.4873 45.0096 8.86853 37.6796C13.6811 22.8651 25.2937 11.2504 40.1054 6.43685C47.434 4.05518 56.4896 4.05518 74.6008 4.05518H268.4C286.511 4.05518 295.567 4.05518 302.895 6.43685C317.707 11.2504 329.32 22.8651 334.132 37.6796C336.513 45.0096 336.513 54.067 336.513 72.1816V623.681C336.513 641.796 336.513 650.853 334.132 658.183C329.32 672.998 317.707 684.612 302.895 689.426C295.567 691.808 286.511 691.808 268.4 691.808H74.6008C56.4896 691.808 47.434 691.808 40.1054 689.426C25.2937 684.612 13.6811 672.998 8.86853 658.183C6.4873 650.853 6.4873 641.796 6.4873 623.681V72.1816Z" fill="#121515"/>
<path d="M268.399 0.00012207H273.265V4.05527H268.399V0.00012207Z" fill="#755477"/>
<path d="M336.513 69.7485H340.567V74.6147H336.513V69.7485Z" fill="#755477"/>
<path d="M2.43262 69.7485H6.48699V74.6147H2.43262V69.7485Z" fill="#755477"/>
<mask id="mask0" mask-type="alpha" maskUnits="userSpaceOnUse" x="17" y="15" width="308" height="665">
<path d="M96.3697 23.751C96.3697 32.1149 103.329 38.8953 111.752 38.8953H230.763C239.185 38.8953 246.145 32.1149 246.145 23.751V19.6207C246.145 17.3396 247.896 15.4094 250.193 15.4094H268.741C285.4 15.4094 293.729 15.4094 300.354 17.9734C310.347 21.8406 318.247 29.743 322.113 39.7391C324.676 46.3666 324.676 54.6985 324.676 71.3625V623.54C324.676 640.203 324.676 648.535 322.113 655.163C318.247 665.159 310.347 673.061 300.354 676.929C293.729 679.493 285.4 679.493 268.741 679.493H73.7739C57.1153 679.493 48.786 679.493 42.1607 676.929C32.1678 673.061 24.268 665.159 20.402 655.163C17.8389 648.535 17.8389 640.203 17.8389 623.54V71.3625C17.8389 54.6985 17.8389 46.3666 20.402 39.7391C24.268 29.743 32.1678 21.8406 42.1607 17.9734C48.786 15.4094 57.1153 15.4094 73.7739 15.4094H92.3218C94.6188 15.4094 96.3697 17.3396 96.3697 19.6207V23.751Z" fill="white"/>
</mask>
<g mask="url(#mask0)">
<rect x="17.8389" y="15.4094" width="306.837" height="664.083" fill="white"/>
</g>
<path fill-rule="evenodd" clip-rule="evenodd" d="M202.719 30.0081C205.854 30.0081 208.395 27.4663 208.395 24.3309C208.395 21.1955 205.854 18.6537 202.719 18.6537C199.584 18.6537 197.043 21.1955 197.043 24.3309C197.043 27.4663 199.584 30.0081 202.719 30.0081Z" fill="#262C2D"/>
<path fill-rule="evenodd" clip-rule="evenodd" d="M202.719 27.8791C204.679 27.8791 206.267 26.2905 206.267 24.3308C206.267 22.3712 204.679 20.7826 202.719 20.7826C200.76 20.7826 199.172 22.3712 199.172 24.3308C199.172 26.2905 200.76 27.8791 202.719 27.8791Z" fill="#121515"/>
<path opacity="0.4" fill-rule="evenodd" clip-rule="evenodd" d="M202.719 23.6212C203.111 23.6212 203.429 23.3035 203.429 22.9116C203.429 22.5196 203.111 22.2019 202.719 22.2019C202.327 22.2019 202.01 22.5196 202.01 22.9116C202.01 23.3035 202.327 23.6212 202.719 23.6212Z" fill="#636F73"/>
<path fill-rule="evenodd" clip-rule="evenodd" d="M154.066 24.3308C154.066 22.987 155.156 21.8977 156.499 21.8977H186.501C187.845 21.8977 188.934 22.987 188.934 24.3308C188.934 25.6745 187.845 26.7639 186.501 26.7639H156.499C155.156 26.7639 154.066 25.6745 154.066 24.3308Z" fill="#262C2D"/>
<defs>
<linearGradient id="paint0_linear" x1="341.784" y1="194.647" x2="341.784" y2="270.073" gradientUnits="userSpaceOnUse">
<stop stop-color="#B999BE"/>
<stop offset="0.0650052" stop-color="#A08EA3"/>
<stop offset="0.146032" stop-color="#D5B7DA"/>
<stop offset="0.873683" stop-color="#B999BE"/>
<stop offset="0.946766" stop-color="#A08EA3"/>
<stop offset="1" stop-color="#B999BE"/>
</linearGradient>
<linearGradient id="paint1_linear" x1="1.2163" y1="286.293" x2="1.21631" y2="238.442" gradientUnits="userSpaceOnUse">
<stop stop-color="#B999BE"/>
<stop offset="0.0650052" stop-color="#A08EA3"/>
<stop offset="0.146032" stop-color="#D5B7DA"/>
<stop offset="0.873683" stop-color="#B999BE"/>
<stop offset="0.946766" stop-color="#A08EA3"/>
<stop offset="1" stop-color="#B999BE"/>
</linearGradient>
<linearGradient id="paint2_linear" x1="1.2163" y1="225.466" x2="1.21631" y2="177.615" gradientUnits="userSpaceOnUse">
<stop stop-color="#B999BE"/>
<stop offset="0.0650052" stop-color="#A08EA3"/>
<stop offset="0.146032" stop-color="#D5B7DA"/>
<stop offset="0.873683" stop-color="#B999BE"/>
<stop offset="0.946766" stop-color="#A08EA3"/>
<stop offset="1" stop-color="#B999BE"/>
</linearGradient>
<linearGradient id="paint3_linear" x1="1.2163" y1="156.529" x2="1.21631" y2="133.82" gradientUnits="userSpaceOnUse">
<stop stop-color="#B999BE"/>
<stop offset="0.0650052" stop-color="#A08EA3"/>
<stop offset="0.146032" stop-color="#D5B7DA"/>
<stop offset="0.873683" stop-color="#B999BE"/>
<stop offset="0.946766" stop-color="#A08EA3"/>
<stop offset="1" stop-color="#B999BE"/>
</linearGradient>
</defs>
</svg>
