<svg width="1920" height="900" viewBox="0 0 1920 900" fill="none" xmlns="http://www.w3.org/2000/svg">
<rect width="1920" height="900" fill="url(#paint0_linear)"/>
<path opacity="0.05" d="M1419.12 272L1362 272L1362 233.6L1530 233.6C1530 240.96 1530.08 249.04 1530.24 257.84C1530.4 266.8 1530.48 275.84 1530.48 284.96C1530.48 308.64 1525.2 325.92 1514.64 336.8C1504.4 347.52 1491.12 352.88 1474.8 352.88C1459.12 352.88 1445.76 347.2 1434.72 335.84C1423.84 324.48 1418.4 309.44 1418.4 290.72C1418.4 282.4 1418.64 276.16 1419.12 272ZM1494.48 288.8C1494.48 288.64 1494.4 287.92 1494.24 286.64C1494.24 285.36 1494.16 283.36 1494 280.64C1494 277.92 1494 275.04 1494 272L1455.6 272C1454.8 278.72 1454.4 284.56 1454.4 289.52C1454.4 296.08 1456.08 301.44 1459.44 305.6C1462.96 309.92 1468.16 312.08 1475.04 312.08C1488 312.08 1494.48 304.32 1494.48 288.8ZM1362 425.445L1362 387.045L1530 387.045L1530 425.445L1362 425.445ZM1362 510.105L1362 471.705L1530 471.705L1530 510.345L1459.2 562.185L1530 611.145L1530 647.385L1362 647.385L1362 608.985L1469.04 608.985L1403.52 562.185L1403.52 556.665L1468.32 510.105L1362 510.105Z" fill="white"/>
<defs>
<linearGradient id="paint0_linear" x1="0" y1="0" x2="2006.18" y2="622.082" gradientUnits="userSpaceOnUse">
<stop stop-color="#7B46AC"/>
<stop offset="1" stop-color="#874CBE"/>
</linearGradient>
</defs>
</svg>
