<svg width="85" height="15" viewBox="0 0 85 15" fill="none" xmlns="http://www.w3.org/2000/svg">
<g clip-path="url(#clip0)">
<path d="M14.9785 5.77914C14.9268 5.62003 14.7893 5.50407 14.6238 5.48005L9.9737 4.80432L7.89407 0.590653C7.82006 0.440654 7.66728 0.345703 7.50003 0.345703C7.33274 0.345703 7.17999 0.440654 7.10595 0.590653L5.02624 4.80432L0.376254 5.48005C0.210757 5.50407 0.0732087 5.62003 0.0215293 5.77911C-0.0301795 5.93822 0.0129453 6.11286 0.13274 6.22961L3.49741 9.5095L2.70324 14.1408C2.67494 14.3057 2.74273 14.4723 2.87805 14.5706C2.9546 14.6262 3.04528 14.6545 3.13639 14.6545C3.20635 14.6545 3.27655 14.6379 3.34082 14.6041L7.5 12.4174L11.659 14.604C11.8071 14.6819 11.9865 14.6689 12.1218 14.5706C12.2571 14.4723 12.3249 14.3056 12.2967 14.1408L11.5022 9.5095L14.8673 6.22958C14.987 6.11286 15.0302 5.93822 14.9785 5.77914Z" fill="white"/>
</g>
<g clip-path="url(#clip1)">
<path d="M32.4785 5.77914C32.4268 5.62003 32.2893 5.50407 32.1238 5.48005L27.4737 4.80432L25.3941 0.590653C25.3201 0.440654 25.1673 0.345703 25 0.345703C24.8327 0.345703 24.68 0.440654 24.606 0.590653L22.5262 4.80432L17.8763 5.48005C17.7108 5.50407 17.5732 5.62003 17.5215 5.77911C17.4698 5.93822 17.5129 6.11286 17.6327 6.22961L20.9974 9.5095L20.2032 14.1408C20.1749 14.3057 20.2427 14.4723 20.3781 14.5706C20.4546 14.6262 20.5453 14.6545 20.6364 14.6545C20.7064 14.6545 20.7765 14.6379 20.8408 14.6041L25 12.4174L29.159 14.604C29.3071 14.6819 29.4865 14.6689 29.6218 14.5706C29.7571 14.4723 29.8249 14.3056 29.7967 14.1408L29.0022 9.5095L32.3673 6.22958C32.487 6.11286 32.5302 5.93822 32.4785 5.77914Z" fill="white"/>
</g>
<g clip-path="url(#clip2)">
<path d="M49.9785 5.77914C49.9268 5.62003 49.7893 5.50407 49.6238 5.48005L44.9737 4.80432L42.8941 0.590653C42.8201 0.440654 42.6673 0.345703 42.5 0.345703C42.3327 0.345703 42.18 0.440654 42.106 0.590653L40.0262 4.80432L35.3763 5.48005C35.2108 5.50407 35.0732 5.62003 35.0215 5.77911C34.9698 5.93822 35.0129 6.11286 35.1327 6.22961L38.4974 9.5095L37.7032 14.1408C37.6749 14.3057 37.7427 14.4723 37.8781 14.5706C37.9546 14.6262 38.0453 14.6545 38.1364 14.6545C38.2064 14.6545 38.2765 14.6379 38.3408 14.6041L42.5 12.4174L46.659 14.604C46.8071 14.6819 46.9865 14.6689 47.1218 14.5706C47.2571 14.4723 47.3249 14.3056 47.2967 14.1408L46.5022 9.5095L49.8673 6.22958C49.987 6.11286 50.0302 5.93822 49.9785 5.77914Z" fill="white"/>
</g>
<g clip-path="url(#clip3)">
<path d="M67.4785 5.77914C67.4268 5.62003 67.2893 5.50407 67.1238 5.48005L62.4737 4.80432L60.3941 0.590653C60.3201 0.440654 60.1673 0.345703 60 0.345703C59.8327 0.345703 59.68 0.440654 59.606 0.590653L57.5262 4.80432L52.8763 5.48005C52.7108 5.50407 52.5732 5.62003 52.5215 5.77911C52.4698 5.93822 52.5129 6.11286 52.6327 6.22961L55.9974 9.5095L55.2032 14.1408C55.1749 14.3057 55.2427 14.4723 55.3781 14.5706C55.4546 14.6262 55.5453 14.6545 55.6364 14.6545C55.7064 14.6545 55.7765 14.6379 55.8408 14.6041L60 12.4174L64.159 14.604C64.3071 14.6819 64.4865 14.6689 64.6218 14.5706C64.7571 14.4723 64.8249 14.3056 64.7967 14.1408L64.0022 9.5095L67.3673 6.22958C67.487 6.11286 67.5302 5.93822 67.4785 5.77914Z" fill="white"/>
</g>
<g clip-path="url(#clip4)">
<path d="M84.9785 5.77914C84.9268 5.62003 84.7893 5.50407 84.6238 5.48005L79.9737 4.80432L77.8941 0.590653C77.8201 0.440654 77.6673 0.345703 77.5 0.345703C77.3327 0.345703 77.18 0.440654 77.106 0.590653L75.0262 4.80432L70.3763 5.48005C70.2108 5.50407 70.0732 5.62003 70.0215 5.77911C69.9698 5.93822 70.0129 6.11286 70.1327 6.22961L73.4974 9.5095L72.7032 14.1408C72.6749 14.3057 72.7427 14.4723 72.8781 14.5706C72.9546 14.6262 73.0453 14.6545 73.1364 14.6545C73.2064 14.6545 73.2765 14.6379 73.3408 14.6041L77.5 12.4174L81.659 14.604C81.8071 14.6819 81.9865 14.6689 82.1218 14.5706C82.2571 14.4723 82.3249 14.3056 82.2967 14.1408L81.5022 9.5095L84.8673 6.22958C84.987 6.11286 85.0302 5.93822 84.9785 5.77914Z" fill="white"/>
</g>
<defs>
<clipPath id="clip0">
<rect width="15" height="15" fill="white"/>
</clipPath>
<clipPath id="clip1">
<rect width="15" height="15" fill="white" transform="translate(17.5)"/>
</clipPath>
<clipPath id="clip2">
<rect width="15" height="15" fill="white" transform="translate(35)"/>
</clipPath>
<clipPath id="clip3">
<rect width="15" height="15" fill="white" transform="translate(52.5)"/>
</clipPath>
<clipPath id="clip4">
<rect width="15" height="15" fill="white" transform="translate(70)"/>
</clipPath>
</defs>
</svg>
