<svg width="32" height="32" viewBox="0 0 32 32" fill="none" xmlns="http://www.w3.org/2000/svg">
<path fill-rule="evenodd" clip-rule="evenodd" d="M21.7143 2.51429H10.2857C5.99367 2.51429 2.51429 5.99367 2.51429 10.2857V21.7143C2.51429 26.0063 5.99367 29.4857 10.2857 29.4857H21.7143C26.0063 29.4857 29.4857 26.0063 29.4857 21.7143V10.2857C29.4857 5.99367 26.0063 2.51429 21.7143 2.51429ZM10.2857 0C4.60507 0 0 4.60507 0 10.2857V21.7143C0 27.3949 4.60507 32 10.2857 32H21.7143C27.3949 32 32 27.3949 32 21.7143V10.2857C32 4.60507 27.3949 0 21.7143 0H10.2857Z" fill="white"/>
<path d="M24.2095 11.7153C24.012 10.9809 23.433 10.402 22.6987 10.2042C21.3572 9.83716 15.9911 9.83716 15.9911 9.83716C15.9911 9.83716 10.6253 9.83716 9.28383 10.1903C8.56365 10.3878 7.97049 10.981 7.77295 11.7153C7.41992 13.0567 7.41992 15.8385 7.41992 15.8385C7.41992 15.8385 7.41992 18.6344 7.77295 19.9617C7.9707 20.696 8.54953 21.275 9.28394 21.4727C10.6394 21.8399 15.9914 21.8399 15.9914 21.8399C15.9914 21.8399 21.3572 21.8399 22.6987 21.4867C23.4331 21.2891 24.012 20.7102 24.2098 19.9759C24.5627 18.6344 24.5627 15.8526 24.5627 15.8526C24.5627 15.8526 24.5768 13.0567 24.2095 11.7153ZM14.2827 18.4085V13.2686L18.7448 15.8385L14.2827 18.4085Z" fill="white"/>
</svg>
